<svg id="Layer_2" data-name="Layer 2" xmlns="http://www.w3.org/2000/svg" viewBox="0 0 1229.93 865.58"><defs><style>.cls-1{fill:#eec63b;}</style></defs><path class="cls-1" d="M960,1408.05c-59.22,1.12-207-4.49-342.86-104.76-42.54-31.4-136.3-100.6-169.6-224-18.29-67.81-9.17-125.63-6.59-161.72,9.53-133.33,80.95-214.28,80.95-214.28s-21.42,19.64-44.34,51.19c0,0-36.11,51.57-53.27,122.62-67.69,280.22,95.23,445.23,95.23,445.23,128,129.63,310,121.46,416.67,116.67C946.19,1438.55,1028.18,1434.87,960,1408.05Z" transform="translate(-257.95 -609.28)"/><path class="cls-1" d="M679.91,1366.49s-45.69-75.42-33.78-120.27,35.47-86.85,25.49-100.82,52.13,52.86,58.58,88.41-18.06,160.93-18.06,160.93Z" transform="translate(-257.95 -609.28)"/><path class="cls-1" d="M382,999.1S312.5,954.19,307.74,916s2.38-77.51-11.91-85.38,67.48,25.58,86.12,51.17,40.16,129.67,40.16,129.67Z" transform="translate(-257.95 -609.28)"/><path class="cls-1" d="M396.78,1142.8s-80.38-19.47-97.47-53.92-23.33-74-39.42-76.67,72.15,1.88,98.19,19.88,80.7,109.15,80.7,109.15Z" transform="translate(-257.95 -609.28)"/><path class="cls-1" d="M480.32,1280.27s-79.16,24-111.35,3-57.62-51.91-72.86-46.1,63.14-35,94.71-32.65,124.9,53.16,124.9,53.16Z" transform="translate(-257.95 -609.28)"/><path class="cls-1" d="M617.59,1407.77s-52.82,63.65-91.27,63.86-76.69-11.55-86.19,1.71,33.39-64,61-79.46,133.52-24.52,133.52-24.52Z" transform="translate(-257.95 -609.28)"/><path class="cls-1" d="M557.63,1269.67s-32.1-71.2-16.77-98.77,40.61-48.69,33.32-62.45,40.21,57.5,42.06,85.36S583,1302,583,1302Z" transform="translate(-257.95 -609.28)"/><path class="cls-1" d="M456.58,1131.19s-5.31-77.92,18.66-98.42,55-31.52,53-46.95,17.69,67.89,9.73,94.65-68.86,89.89-68.86,89.89Z" transform="translate(-257.95 -609.28)"/><path class="cls-1" d="M434.06,920.28s35.67-69.48,66.78-74.68,63.39,1.41,69.6-12.87-19.89,67.28-40.52,86.1-105.38,41.45-105.38,41.45Z" transform="translate(-257.95 -609.28)"/><path class="cls-1" d="M386.58,695.81s71.68,55.76,69.45,86.24-18.54,58.15-3.52,68.58-73.31-40.46-89.79-65.71-20.34-111-20.34-111Z" transform="translate(-257.95 -609.28)"/><path class="cls-1" d="M497.33,698.49S533,629,564.11,623.82s63.38,1.4,69.6-12.87S613.82,678.23,593.19,697s-105.38,41.45-105.38,41.45Z" transform="translate(-257.95 -609.28)"/><path class="cls-1" d="M785.83,1408.05c59.22,1.12,207-4.49,342.86-104.76,42.54-31.4,136.31-100.6,169.6-224,18.29-67.81,9.17-125.63,6.59-161.72-9.52-133.33-81-214.28-81-214.28s21.43,19.64,44.34,51.19c0,0,36.11,51.57,53.28,122.62,67.68,280.22-95.24,445.23-95.24,445.23-128,129.63-310,121.46-416.67,116.67C799.64,1438.55,717.65,1434.87,785.83,1408.05Z" transform="translate(-257.95 -609.28)"/><path class="cls-1" d="M1065.92,1366.49s45.69-75.42,33.78-120.27-35.47-86.85-25.49-100.82-52.12,52.86-58.58,88.41,18.06,160.93,18.06,160.93Z" transform="translate(-257.95 -609.28)"/><path class="cls-1" d="M1363.88,999.1s69.45-44.91,74.21-83.07-2.38-77.51,11.91-85.38-67.48,25.58-86.12,51.17-40.16,129.67-40.16,129.67Z" transform="translate(-257.95 -609.28)"/><path class="cls-1" d="M1349.05,1142.8s80.38-19.47,97.47-53.92,23.34-74,39.42-76.67-72.15,1.88-98.18,19.88-80.7,109.15-80.7,109.15Z" transform="translate(-257.95 -609.28)"/><path class="cls-1" d="M1265.51,1280.27s79.16,24,111.36,3,57.61-51.91,72.85-46.1-63.13-35-94.7-32.65-124.91,53.16-124.91,53.16Z" transform="translate(-257.95 -609.28)"/><path class="cls-1" d="M1128.24,1407.77s52.82,63.65,91.27,63.86,76.69-11.55,86.2,1.71-33.4-64-61-79.46-133.52-24.52-133.52-24.52Z" transform="translate(-257.95 -609.28)"/><path class="cls-1" d="M1188.2,1269.67s32.1-71.2,16.77-98.77-40.61-48.69-33.32-62.45-40.21,57.5-42.06,85.36S1162.86,1302,1162.86,1302Z" transform="translate(-257.95 -609.28)"/><path class="cls-1" d="M1289.25,1131.19s5.31-77.92-18.66-98.42-55-31.52-53-46.95-17.69,67.89-9.73,94.65,68.86,89.89,68.86,89.89Z" transform="translate(-257.95 -609.28)"/><path class="cls-1" d="M1311.77,920.28S1276.1,850.8,1245,845.6s-63.38,1.41-69.6-12.87,19.89,67.28,40.52,86.1,105.38,41.45,105.38,41.45Z" transform="translate(-257.95 -609.28)"/><path class="cls-1" d="M1359.25,695.81s-71.67,55.76-69.45,86.24,18.54,58.15,3.52,68.58,73.31-40.46,89.79-65.71,20.34-111,20.34-111Z" transform="translate(-257.95 -609.28)"/><path class="cls-1" d="M1248.5,698.49s-35.66-69.48-66.78-74.67-63.38,1.4-69.6-12.87S1132,678.23,1152.64,697,1258,738.49,1258,738.49Z" transform="translate(-257.95 -609.28)"/></svg>